/* XPM */
static char *_1fc48a0024742b0bd5c4359fa317a98[] = {
/* columns rows colors chars-per-pixel */
"64 64 141 2 ",
"   c #1C00DF",
".  c #2400DD",
"X  c #2B00DB",
"o  c #3400D7",
"O  c #3A00D6",
"+  c #3200DC",
"@  c #3F03DF",
"#  c #1C00E1",
"$  c #2300E1",
"%  c #2900E0",
"&  c #2D07EB",
"*  c #2D0AED",
"=  c #3200E0",
"-  c #3B04E2",
";  c #3B0AE7",
":  c #3607E8",
">  c #340DEC",
",  c #380CE9",
"<  c #3B10E9",
"1  c #3E1FF0",
"2  c #4302DB",
"3  c #4A03DA",
"4  c #4C0CDF",
"5  c #510EDE",
"6  c #5511DD",
"7  c #5B12DB",
"8  c #5F19DC",
"9  c #6715D7",
"0  c #6816D6",
"q  c #6918D6",
"w  c #6415D8",
"e  c #631EDD",
"r  c #6B24DC",
"t  c #6E2BDF",
"y  c #7226DA",
"u  c #722CDD",
"i  c #7532DF",
"p  c #7C35DC",
"a  c #7E3ADF",
"s  c #450CE2",
"d  c #4711E4",
"f  c #4D13E2",
"g  c #4D1BE7",
"h  c #541BE3",
"j  c #5C1EE0",
"k  c #5422E6",
"l  c #5E25E3",
"z  c #5D28E4",
"x  c #5125E9",
"c  c #5529EA",
"v  c #5433EE",
"b  c #5C35EC",
"n  c #5D3BEF",
"m  c #4328F1",
"M  c #4A2CF1",
"N  c #4635F7",
"B  c #4B36F5",
"V  c #4235F8",
"C  c #5037F3",
"Z  c #5438F2",
"A  c #5A3AF0",
"S  c #682CE2",
"D  c #6735E7",
"F  c #6C34E4",
"G  c #6D39E6",
"H  c #643DEC",
"J  c #6B3FE9",
"K  c #7333E0",
"L  c #723AE4",
"P  c #7A3CE1",
"I  c #6441EE",
"U  c #6E41E9",
"Y  c #6F49EC",
"T  c #7441E6",
"R  c #7C42E4",
"E  c #7141E8",
"W  c #7B4EE9",
"Q  c #7D53EC",
"!  c #7F5AED",
"~  c #6243F1",
"^  c #654BF2",
"/  c #6A4CF1",
"(  c #823DDF",
")  c #8642DF",
"_  c #8B46DE",
"`  c #8444E1",
"'  c #8845E0",
"]  c #854AE3",
"[  c #8A4AE1",
"{  c #8A55E6",
"}  c #8E5CE6",
"|  c #8C5CE8",
" . c #905CE6",
".. c #905FE8",
"X. c #8B64EC",
"o. c #9461E6",
"O. c #9865E7",
"+. c #946BEB",
"@. c #9470EE",
"#. c #886BF1",
"$. c #A47BEC",
"%. c #AA7BE9",
"&. c #9F8DF7",
"*. c #A782ED",
"=. c #AB89EF",
"-. c #B68CEB",
";. c #BE9AEE",
":. c #A486F1",
">. c #A887F0",
",. c #A58DF5",
"<. c #A988F0",
"1. c #AC92F3",
"2. c #A190F8",
"3. c #B293F1",
"4. c #B69DF4",
"5. c #BA9DF2",
"6. c #BDA0F2",
"7. c #BFABF6",
"8. c #B3A7FA",
"9. c #C2AAF4",
"0. c #C5B2F7",
"q. c #CEBAF6",
"w. c #CDBFF9",
"e. c #D0BAF4",
"r. c #D4C2F7",
"t. c #D5C7F9",
"y. c #D7C9F8",
"u. c #DECDF8",
"i. c #DED4FB",
"p. c #E2D6FA",
"a. c #E5D9F9",
"s. c #E9DFFB",
"d. c #E7E0FC",
"f. c #ECE3FB",
"g. c #EEE8FC",
"h. c #F0E6FB",
"j. c #F3EEFD",
"k. c #F6F2FE",
"l. c #F8F6FE",
"z. c #FFFFFF",
"x. c None",
/* pixels */
"x.x.x.x.x.x.x.x.x.x.x.x.x.x.x.x.x.x.x.x.x.x.x.x.x.x.x.x.x.x.x.x.x.x.x.x.x.x.x.x.x.x.x.x.x.x.x.x.x.x.x.x.x.x.x.x.x.x.x.x.x.x.x.x.",
"x.x.x.x.x.x.x.x.x.x.x.x.x.x.x.x.x.x.x.x.x.x.x.x.x.x.x.T T T E J J J J J H H x.x.x.x.x.x.x.x.x.x.x.x.x.x.x.x.x.x.x.x.x.x.x.x.x.x.",
"x.x.x.x.x.x.x.x.x.x.x.x.x.x.x.x.x.x.x.x.x.x.x.T T R T T T J T T J E J H J H H H n H x.x.x.x.x.x.x.x.x.x.x.x.x.x.x.x.x.x.x.x.x.x.",
"x.x.x.x.x.x.x.x.x.x.x.x.x.x.x.x.x.x.x.x.R R R R T T T T T J E J J J J H H H H H H n n n A x.x.x.x.x.x.x.x.x.x.x.x.x.x.x.x.x.x.x.",
"x.x.x.x.x.x.x.x.x.x.x.x.x.x.x.x.x.x.R R R R R T R T T T T T J J J J J J J H H H n H A n A A A x.x.x.x.x.x.x.x.x.x.x.x.x.x.x.x.x.",
"x.x.x.x.x.x.x.x.x.x.x.x.x.x.x.x.` R ` R R R R R R T T T E T T J J J J J H H H H H H n A A A Z A A x.x.x.x.x.x.x.x.x.x.x.x.x.x.x.",
"x.x.x.x.x.x.x.x.x.x.x.x.x.x.x.` R ` R R R R R T T T T T T T T E E J J H H H H H H A n A A A A Z A Z x.x.x.x.x.x.x.x.x.x.x.x.x.x.",
"x.x.x.x.x.x.x.x.x.x.x.x.x.` ` ` ` ` R R R R R R T R T T T J J T J J J J J J H H H n H H n A b Z C C C C x.x.x.x.x.x.x.x.x.x.x.x.",
"x.x.x.x.x.x.x.x.x.x.x.x.' ` ` ` ` R ` R R R R T T T R T T T T E J J J J H H H H H n n n n A A A Z Z C Z C x.x.x.x.x.x.x.x.x.x.x.",
"x.x.x.x.x.x.x.x.x.x.x.' ' ` ' R R ` R R R R R R R R T T T T J J E J J J J J J H H H H n n A A Z Z Z Z Z C C x.x.x.x.x.x.x.x.x.x.",
"x.x.x.x.x.x.x.x.x.x.' ' ' ` ` ` ` R ` R R R R R R T T T T T T E E J J J H H J H H H n n n A A A Z Z Z B C C B x.x.x.x.x.x.x.x.x.",
"x.x.x.x.x.x.x.x.x.' ' ' ' ' ` R ` ` R R R R R R R T T R T J T J J J E H J J H H n H n n n A A Z n Z Z Z Z C B B x.x.x.x.x.x.x.x.",
"x.x.x.x.x.x.x.x.) ' ' ' ` ` ` ` R ` R ` R R R R R T T T T T T T E J J J J H H H H H H n n A A A Z Z A B C C B B B x.x.x.x.x.x.x.",
"x.x.x.x.x.x.x._ ) ' ' ` ' ` ` ` ` ` ` R R R R T T R R T T T J T E J J J J J H J H n H n n n A A n C Z C C C C B N B x.x.x.x.x.x.",
"x.x.x.x.x.x.x.) [ ) ' ' ' ` ` ` ` R ` R R R R R T R T T T T T E E J J E J J H H H H n n n A n A Z A A C Z C B B B N x.x.x.x.x.x.",
"x.x.x.x.x.x.[ [ ' _ ' ' ' ' ` ` ` ) R ` R R R R R R T R T T T T E J J J J H H H H H H n n n n A A Z A Z C C B B B B N x.x.x.x.x.",
"x.x.x.x.x.' _ _ ) ) [ ' ' ' ` ` ` R ` R ` R R R R R T T T T T T T J J J J J H H H H H n n n A A A A C Z C C B B B B N N x.x.x.x.",
"x.x.x.x.x._ _ ' [ _ ) ' ' ' ` ` ` ` R ` R R R T e j l 8 j j h h h h h g g g g H I b n n n n A A A C Z Z Z C Z B B N N V x.x.x.x.",
"x.x.x.x._ _ [ _ [ ) ) [ ` ` ' ' ` ` ` R F i R ] =.=.>.>.>.>.>.>.>.>.:.:.:.:.1.Q c c c I n n n A Z A A C C C C B B N N N V x.x.x.",
"x.x.x.x._ ' _ _ ) _ ' ) ' ' ` ` ` R ] r { e.F o.z.z.z.z.z.z.z.z.z.z.z.z.z.z.l.c x w.#.< I H n A A Z A Z Z Z C C C B B V V x.x.x.",
"x.x.x._ _ _ _ _ _ ) ) _ ` ' ` ' ` ` r i k.z.8 } z.z.z.z.z.z.z.z.z.z.z.z.z.z.! # 1.z.k.I < H A A A Z Z Z Z C C C B B B N V V x.x.",
"x.x.x._ _ _ _ _ [ ) [ ) ' ' ' ' ] r a d.z.p.e } z.z.z.z.z.z.z.z.z.z.z.z.z.7.. Y z.z.z.k./ < n n n Z Z Z Z C C C B B N N V V x.x.",
"x.x.x._ _ _ _ [ [ _ ) ' ' ' ) ] r P g.z.z.a.e } z.z.z.z.z.z.z.z.z.z.z.z.j.x - i.z.z.z.z.l./ > n A A Z A Z C C C B B B V N V x.x.",
"x.x._ _ _ _ _ _ ) [ ' [ ) ` [ r a h.z.z.z.a.8 } z.z.z.z.z.z.z.z.z.z.z.z.@.# >.z.z.z.z.z.z.z./ > n A Z Z Z C C C B B B N V V V x.",
"x.x._ _ _ _ _ _ _ _ _ _ _ [ y p g.z.z.z.z.a.8  .z.z.z.z.z.z.z.z.z.z.z.w.= H z.z.z.z.z.z.z.z.l./ > ~ Z Z Z C C C C B N B V N V x.",
"x.x._ _ _ _ _ _ _ _ _ _ _ y p f.z.z.z.z.z.a.e  .z.z.z.z.z.z.z.z.z.z.k.D = w.z.z.z.z.z.z.z.z.z.l.~ * ~ C Z Z C C B B B B N V V x.",
"x.x._ _ _ _ _ _ _ _ _ _ y p f.z.z.z.z.z.z.a.8  .z.z.z.z.z.z.z.z.z.z.:.. +.z.z.z.z.z.z.z.z.z.z.z.k.~ > ~ Z Z C C C C B N N V V x.",
"x._ _ _ _ _ _ _ _ _ _ y ( h.z.z.z.z.z.z.z.a.e | z.z.z.z.z.z.z.z.z.y.@ l j.z.z.z.z.z.z.z.z.z.z.z.z.l.^ * A Z Z C B B B B N V V V ",
"x._ _ o._ _ _ _ _ _ y ( h.z.z.z.z.z.z.z.z.a.e  .z.z.z.z.z.z.z.z.l.T + 0.z.z.z.z.z.z.z.z.z.z.z.z.z.z.l.^ * Z Z C C B N B B N V V ",
"x._ _ _ _ _ _ _ _ ( ( h.z.z.z.z.z.z.z.z.z.a.e  .z.z.z.z.z.z.z.z.3.X X.z.z.z.z.z.z.z.z.z.z.z.z.z.z.z.z.l./ 1 Z Z C B B B V N V V ",
"x._ _ _ _ _ _ _ _ y h.z.z.z.z.z.z.z.z.z.z.a.e  .z.z.z.z.z.z.z.s.h z d.z.z.z.z.z.z.z.z.z.z.z.z.z.z.z.z.z.z.Z m Z C C B N B V V V ",
"x._ _ _ _ _ _ _ _ ( -.l.z.z.z.z.z.z.z.z.z.a.e  .z.z.z.z.z.z.z.| + 5.z.z.z.z.z.z.z.z.z.z.z.z.z.z.z.z.z.z.8.M C C C B B B B V V V ",
"x._ _ _ _ _ _ _ _ ) q %.z.z.z.z.z.z.z.z.z.a.e  .z.z.z.z.z.z.9.4 j T s.z.z.z.z.z.z.z.z.z.z.z.z.z.z.z.z.2.& M Z Z C C B B N N N V ",
"x._ _ _ _ _ _ _ [ _ _ w %.z.z.z.z.z.z.z.z.a.e  .z.z.z.z.z.g.l F @.2 F k.z.z.z.z.z.z.z.z.z.z.z.z.z.z.&.& C Z Z Z C B B B B N V V ",
"x.o._ _ _ _ _ _ _ _ _ ) 0 %.z.z.z.z.z.z.z.a.e  .z.z.z.z.z.O.o 3.z.@.X W z.z.z.z.z.z.z.z.z.z.z.z.z.,.& v Z Z Z C Z C B B B N N V ",
"x._ _ _ _ _ _ _ _ _ _ _ ) 9 %.z.z.z.z.z.z.a.e  .z.z.z.z.q.O L k.z.z.W X X.z.z.z.z.z.z.z.z.z.z.z.,.& C n A Z Z Z C C B B N N N V ",
"x._ _ _ _ _ _ _ _ _ _ _ ) ) q %.z.z.z.z.z.a.e  .z.z.z.k.F 2 r.z.z.z.k.G X :.z.z.z.z.z.z.z.z.z.1.& v n n A Z C Z C C B B B N N N ",
"x._ _ _ _ _ _ _ _ _ ' _ _ ' ' w %.z.z.z.z.a.e  .z.z.z.$.o $.z.z.z.z.z.d.z + 4.z.z.z.z.z.z.z.1., v n A A A Z Z Z C C C B B N N N ",
"x.x._ O._ _ _ _ _ _ _ ' ) [ [ ) w %.z.z.z.a.e  .z.z.u.3 S k.z.z.z.z.z.z.i.f = 0.z.z.z.z.z.,.: v I n n Z A A Z Z Z C C B B N N N ",
"x.x._ _ _ _ _ _ _ _ [ ) _ ) ' ' ) w %.z.z.p.e } z.z.R 2 e.z.z.z.z.z.z.z.z.q.- s t.z.z.z.,., b H n n A n Z Z Z C Z C C B B B N x.",
"x.x._ _ _ _ _ _ _ _ _ _ _ ) ' ' _ ) w $.z.k.w  .z.6.O O.z.z.z.z.z.z.z.z.z.z.4.+ g d.z.,.; b I H n n A A n Z Z Z C C C B B B V x.",
"x.x._ O._ _ _ _ _ _ _ _ _ ' ' ' ) [ ` w ;.j.t %.s.e e g.z.z.z.z.z.z.z.z.z.z.z.:.% ! ,.g b J H n I n A A Z n Z Z Z C C B C B B x.",
"x.x.x._ _ _ _ _ _ _ _ _ _ _ ' ' ' ' ` ` u o.R O.o.3 5.z.z.z.z.z.z.z.z.z.z.z.z.z.>.d g H H H H n n n n A A Z Z Z Z C C C B B x.x.",
"x.x.x._ _ _ _ _ _ _ _ _ ' ) ' ' ' ' ' ` ` K ' P 7 { z.z.z.z.z.z.z.z.z.z.z.z.z.z.4.h J I H H H H n n n n A Z A Z Z C C B B B x.x.",
"x.x.x.O._ _ _ _ _ _ _ _ [ ) ) ' ` ' ` ' ` ` R a K d.z.z.z.z.z.z.z.z.z.z.z.z.z.1.g D J H H H H n H A n A A A Z Z Z Z Z B B B x.x.",
"x.x.x.x._ _ _ _ _ _ _ _ _ [ ' ) ) ' ' ` ` ` R t o.z.z.z.z.z.z.z.z.z.z.z.z.z.1.d D U H J J H H n n H n A A Z Z Z Z Z B Z B x.x.x.",
"x.x.x.x._ _ _ _ _ _ _ _ ) [ ' [ [ ) [ ` ` ` ` R t $.z.z.z.z.z.z.z.z.z.z.z.3.s D U I J H H J H H H n n n A A Z Z Z Z B B B x.x.x.",
"x.x.x.x.x._ _ _ _ _ _ [ ) _ ) ' ' ' ) ` ' ` ` ` ) 7 $.z.z.z.z.z.z.z.z.z.4.f F E U I J J H H H H n H n A A A Z Z ~ B Z Z x.x.x.x.",
"x.x.x.x.x.O._ _ _ _ _ _ _ _ _ _ ' ' ` ` ' ` ` R ` R 7 $.z.z.z.z.z.z.z.3.f G R J U J J H H H H H H H n A A A Z Z Z Z Z C x.x.x.x.",
"x.x.x.x.x.x._ _ _ _ _ _ _ _ _ _ ' ' ) ' ` ` ` ` R ` R 7 $.z.z.z.z.z.1.4 F E E J J J J J U J H n n n n n n b A Z C Z Z x.x.x.x.x.",
"x.x.x.x.x.x.x._ _ _ _ _ _ _ _ _ ' ' [ ) ` ` R R ` R ` R 6 $.z.z.z.3.6 L T E E J J J J H H H H H H n n A n A Z Z A C x.x.x.x.x.x.",
"x.x.x.x.x.x.x.O._ _ _ _ _ _ _ _ [ ) ` ` ` ` ` ` R ` R R R 6 *.z.5.5 J T T E E J J U J J H J H H H H n n A A A A Z C x.x.x.x.x.x.",
"x.x.x.x.x.x.x.x._ _ _ _ _ _ _ _ ' ' ' ' ` ' ` ` ` ` R R R R S | F L T T T T E E J E J J J H H H n H n n A A A Z A x.x.x.x.x.x.x.",
"x.x.x.x.x.x.x.x.x._ _ _ _ _ _ _ ' ' ' ' [ ` ` R ` R ` R R R R S L R T T T T E E J J J J H J H H H n H n n A A A x.x.x.x.x.x.x.x.",
"x.x.x.x.x.x.x.x.x.x._ _ _ _ _ _ [ ) ` ' ` ` ) ` R R R R R R R R R T R T T T E E J J J J H H H H H H n n n n A x.x.x.x.x.x.x.x.x.",
"x.x.x.x.x.x.x.x.x.x.x._ _ _ _ _ ) ' ) ' ' ` ` R ` ` ` R R R R R T R T T T L E E J U J H J J H H H n n n A A x.x.x.x.x.x.x.x.x.x.",
"x.x.x.x.x.x.x.x.x.x.x.x._ _ _ _ _ ' ' ' ` ` ` ` ` R ` R R T R R R T R T T T T E J J E J J H H H H H n H A x.x.x.x.x.x.x.x.x.x.x.",
"x.x.x.x.x.x.x.x.x.x.x.x.x._ _ _ ) ' ' ' ' ` ' R ` ` R ` R R R R T R T T T T E E T J J J J J J H n H n n x.x.x.x.x.x.x.x.x.x.x.x.",
"x.x.x.x.x.x.x.x.x.x.x.x.x.x.x._ ' ' ' ' ' ' ` ` ` R ` R R R T R R T T T T T T E E J J J H H H H H H x.x.x.x.x.x.x.x.x.x.x.x.x.x.",
"x.x.x.x.x.x.x.x.x.x.x.x.x.x.x.x.' ' ' ' ' ` ` ` ` ` R ) R R R R R T R T T T E E E J J J J J J H H x.x.x.x.x.x.x.x.x.x.x.x.x.x.x.",
"x.x.x.x.x.x.x.x.x.x.x.x.x.x.x.x.x.x.' ' ' ` ' ` ` R ` R R R R R R R T R T T T T E J J E J J J x.x.x.x.x.x.x.x.x.x.x.x.x.x.x.x.x.",
"x.x.x.x.x.x.x.x.x.x.x.x.x.x.x.x.x.x.x.x.' ' ` ` R ` R ` ` R R R R T R T T T T E T J J J J x.x.x.x.x.x.x.x.x.x.x.x.x.x.x.x.x.x.x.",
"x.x.x.x.x.x.x.x.x.x.x.x.x.x.x.x.x.x.x.x.x.x.x.` ` ` ` R ` R R R T R T T T T T J U J x.x.x.x.x.x.x.x.x.x.x.x.x.x.x.x.x.x.x.x.x.x.",
"x.x.x.x.x.x.x.x.x.x.x.x.x.x.x.x.x.x.x.x.x.x.x.x.x.x.x.` R R R R T R R T T T T x.x.x.x.x.x.x.x.x.x.x.x.x.x.x.x.x.x.x.x.x.x.x.x.x."
};
