/* XPM */
static char *_e4e0ad3ad8440cfd713e223540664b3[] = {
/* columns rows colors chars-per-pixel */
"16 16 154 2 ",
"   c #2F07EA",
".  c #2B07EC",
"X  c #3D24F3",
"o  c #5F16DA",
"O  c #5B1CDF",
"+  c #7120D8",
"@  c #772CDA",
"#  c #772CDB",
"$  c #7129DC",
"%  c #7432DF",
"&  c #7732DE",
"*  c #7A30DB",
"=  c #7A32DC",
"-  c #7B34DE",
";  c #7836DF",
":  c #4B0EE0",
">  c #4C18E5",
",  c #4F18E4",
"<  c #4A1EE9",
"1  c #5519E1",
"2  c #4520EC",
"3  c #5326E8",
"4  c #532CEB",
"5  c #5D36EB",
"6  c #5A37EF",
"7  c #5D3CEF",
"8  c #5F3CEE",
"9  c #5E3DEF",
"0  c #4023F0",
"q  c #4526F0",
"w  c #4735F7",
"e  c #4B34F4",
"r  c #4A34F5",
"t  c #4B37F5",
"y  c #4A37F6",
"u  c #4E37F4",
"i  c #5237F1",
"p  c #5037F3",
"a  c #5037F4",
"s  c #5138F3",
"d  c #5338F2",
"f  c #5238F3",
"g  c #5639F1",
"h  c #5739F1",
"j  c #573BF1",
"k  c #563BF2",
"l  c #5138F4",
"z  c #5939F0",
"x  c #5939F1",
"c  c #5A3BF0",
"v  c #5B3BF0",
"b  c #593DF2",
"n  c #6D2EE1",
"m  c #6930E3",
"M  c #6F33E1",
"N  c #653DEB",
"B  c #663EEB",
"V  c #603CED",
"C  c #603CEE",
"Z  c #643DEC",
"A  c #653DEC",
"S  c #653EEC",
"D  c #693DE9",
"F  c #6B3FE9",
"G  c #6A3EEA",
"H  c #6C3FE9",
"J  c #7435E1",
"K  c #763CE3",
"L  c #703EE7",
"P  c #743EE4",
"I  c #7B3DE1",
"U  c #783DE2",
"Y  c #6743ED",
"T  c #6C40E9",
"R  c #6F40E8",
"E  c #6C41EA",
"W  c #7040E7",
"Q  c #7140E7",
"!  c #7641E5",
"~  c #7541E6",
"^  c #7441E7",
"/  c #7D43E3",
"(  c #7F43E3",
")  c #7A42E4",
"_  c #7A42E5",
"`  c #843BDC",
"'  c #823EDE",
"]  c #853EDD",
"[  c #813FE0",
"{  c #8946DF",
"}  c #8947DF",
"|  c #8B46DE",
" . c #8B46DF",
".. c #8C46DD",
"X. c #8D47DD",
"o. c #8E47DD",
"O. c #8C46DE",
"+. c #8D47DE",
"@. c #8E4BDF",
"#. c #8F4BDF",
"$. c #8344E1",
"%. c #8044E3",
"&. c #8544E1",
"*. c #8745E0",
"=. c #8747E2",
"-. c #8845E0",
";. c #8846E0",
":. c #8B4AE0",
">. c #8849E2",
",. c #8E4BE0",
"<. c #915EE6",
"1. c #9B70EA",
"2. c #8A71F3",
"3. c #8872F4",
"4. c #A57EED",
"5. c #9D81F2",
"6. c #9984F5",
"7. c #9E86F5",
"8. c #A583EF",
"9. c #A686F1",
"0. c #A789F1",
"q. c #A989F0",
"w. c #A98CF2",
"e. c #B096F2",
"r. c #B597F1",
"t. c #BCA3F3",
"y. c #BEA2F3",
"u. c #C0A0F1",
"i. c #C5AAF2",
"p. c #C3AFF6",
"a. c #C4AFF5",
"s. c #CBACF1",
"d. c #C1B0F6",
"f. c #CEB5F4",
"g. c #CEB6F5",
"h. c #D3BDF5",
"j. c #DFCAF6",
"k. c #D6C8F9",
"l. c #DAC9F8",
"z. c #DECFF8",
"x. c #E0D1F8",
"c. c #E1D1F8",
"v. c #E7DBFA",
"b. c #E8D9F8",
"n. c #EADFFA",
"m. c #E8E0FB",
"M. c #ECE4FC",
"N. c #EFEBFD",
"B. c #F0ECFD",
"V. c #F1EDFD",
"C. c #F1EDFE",
"Z. c #F4EFFD",
"A. c gray100",
"S. c None",
/* pixels */
"S.S.S.S.S.S.S.S.S.S.S.S.S.S.S.S.",
"S.S.S.S.S.S._ ! R G C 8 S.S.S.S.",
"S.S.S.S.$./ _ ! W R Z 8 z f S.S.",
"S.S.S.*.$./ _ ! W G Z C v d t S.",
"S.S. .*.*.I n O 1 > 3 4 v v t w ",
"S.S. .:.& J 1.y.y.p.5.Y 2 d f w ",
"S.+.@.* $ h.l.A.A.A.d.Z.2.. f y ",
"S.+.] ' j.A.i.Z.A.e.k.A.A.2.0 w ",
"S...+ s.A.A.y.A.p.q.A.A.A.A.k X ",
"S.+.`  .b.A.f.M.8.9.n.A.A.6.q w ",
"S.+.@.# * x.n.4.n.B.w.N.9.  i f ",
"S.+. .,.# ' <.g.A.A.Z.T < 6 d p ",
"S.S.+.+.:.- o x.A.A.0.> 5 8 d f ",
"S.S.+. . .*.; K z.r.: G Y 6 z f ",
"S.S.S.+. .*.:.J M m L T Z 8 z S.",
"S.S.S.S.-.-.$./ K P ! H Y C S.S."
};
