/* XPM */
static char *fd8eadaae817465ba69a57d5fe59a927[] = {
/* columns rows colors chars-per-pixel */
"32 32 109 2 ",
"   c #340CEB",
".  c #3B0EE8",
"X  c #3514EE",
"o  c #3C14EB",
"O  c #3B1CF0",
"+  c #3E21F1",
"@  c #5F1ADC",
"#  c #6C1DD7",
"$  c #6019DB",
"%  c #6A1CD9",
"&  c #6C24DC",
"*  c #6C29DD",
"=  c #7225D9",
"-  c #7629D9",
";  c #7432DE",
":  c #7D32DA",
">  c #7C3BDF",
",  c #4A0DE2",
"<  c #4513E7",
"1  c #4D14E3",
"2  c #4617E8",
"3  c #5416E0",
"4  c #5E1FE0",
"5  c #5420E6",
"6  c #5A27E7",
"7  c #5D2BE7",
"8  c #522BEB",
"9  c #5A2AE8",
"0  c #5937EF",
"q  c #5E3BEF",
"w  c #4635F7",
"e  c #4B37F5",
"r  c #4F38F4",
"t  c #4335F8",
"y  c #5037F4",
"u  c #5439F2",
"i  c #5A3BF1",
"p  c #642CE4",
"a  c #6A2EE3",
"s  c #6D31E1",
"d  c #6D3CE7",
"f  c #6237EA",
"g  c #6937E8",
"h  c #643DED",
"j  c #6B3FEA",
"k  c #7134E2",
"l  c #763CE3",
"z  c #7D3DE0",
"x  c #6240EF",
"c  c #6E40EA",
"v  c #7541E6",
"b  c #7C43E4",
"n  c #7140E8",
"m  c #7947E8",
"M  c #724BED",
"N  c #7751EE",
"B  c #7D53EC",
"V  c #6D53F3",
"C  c #7353F1",
"Z  c #7762F4",
"A  c #7E60F0",
"S  c #823DDE",
"D  c #8745DF",
"F  c #8B46DE",
"G  c #8E4BDF",
"H  c #8445E1",
"J  c #834AE3",
"K  c #8A4AE1",
"L  c #8650E6",
"P  c #8B53E3",
"I  c #8356EA",
"U  c #8956E8",
"Y  c #855CEB",
"T  c #9153E2",
"R  c #935CE4",
"E  c #8C68EE",
"W  c #9D63E3",
"Q  c #9B6AE7",
"!  c #9365E8",
"~  c #976CEB",
"^  c #9F71EA",
"/  c #8F70F0",
"(  c #A173E9",
")  c #A47BEB",
"_  c #A97EEB",
"`  c #AB82EC",
"'  c #B38EEF",
"]  c #B692EE",
"[  c #BA95EE",
"{  c #BC98EF",
"}  c #A183F2",
"|  c #A88BF2",
" . c #AD93F3",
".. c #BFA8F4",
"X. c #CAAFF3",
"o. c #CBB4F4",
"O. c #CCB8F6",
"+. c #DBCDF9",
"@. c #DDD2FA",
"#. c #E3D6FA",
"$. c #E4DBFA",
"%. c #EDE7FC",
"&. c #EFEDFE",
"*. c #F0E7FB",
"=. c #F2EDFD",
"-. c #F7F3FD",
";. c #FAF6FE",
":. c #FFFEFF",
">. c None",
/* pixels */
">.>.>.>.>.>.>.>.>.>.>.>.v v d n c j h h >.>.>.>.>.>.>.>.>.>.>.>.",
">.>.>.>.>.>.>.>.>.b b b b v v c j j h h x q i >.>.>.>.>.>.>.>.>.",
">.>.>.>.>.>.>.H b b b b v v n n j j j h q q i 0 u >.>.>.>.>.>.>.",
">.>.>.>.>.>.H H H b b b b v n n j j j h h q i 0 u y >.>.>.>.>.>.",
">.>.>.>.>.D H H b H b b b v n n d c j h h q q i 0 u r >.>.>.>.>.",
">.>.>.>.D H H H H b b b b v v n c c j h h q i i u u r w >.>.>.>.",
">.>.>.D D D H H b H b b b v v l c c j h h q q i 0 y y r w >.>.>.",
">.>.F K D D D H H H b l a a p 7 p 9 9 f h h q i i y y r w w >.>.",
">.>.F F D K D D b ; s L U I I L B B Y N 2 8 x q 0 r r y e w >.>.",
">.G F F F D D K & Q ) ` :.:.:.:.:.:.:.M  .A o q i i y r e w t >.",
">.G F F D D G # > ;.o.^ :.:.:.:.:.:.} N :.=.q o i u r y e w t >.",
">.F F F D K = > =.:.' ^ :.:.:.:.:.@.1 %.:.:.&.q X i r r e w w >.",
"G F F F F # S *.:.:.] ^ :.:.:.:.:.g  .:.:.:.:.&.0 X i r e w t t ",
"F G F F S S *.:.:.:.] ^ :.:.:.:. .d :.:.:.:.:.:.&.y O u r e t t ",
"F F F S G ;.:.:.:.:.] ^ :.:.:.%.p $.:.:.:.:.:.:.:.;.V + e e w t ",
"F F F S W ;.:.:.:.:.] ( :.:.:.v I :.:.:.:.:.:.:.:.:.Z O r e w t ",
"F F G G - T ;.:.:.:.] ( :.:.X.p m O.:.:.:.:.:.:.:.V X i r e w t ",
"F F F F G # T ;.:.:.] ^ :.;.4 $.$., +.:.:.:.:.:.V   i r r e e t ",
"F G G F D G # T ;.:.' ( :.! ~ :.:..., %.:.:.:.B   q 0 u r r w w ",
"G F G F F D F % T :.X.] #.* ;.:.:.:.| 5 :.:.N . h i 0 r r e e w ",
">.G F F F F D G % _ { _ L X.:.:.:.:.:.} E / < h x i 0 i r r e >.",
">.G F F F F F D K ; > * ` :.:.:.:.:.:.:.5 < x h q q u r r r e >.",
">.G F F F F D D D H > * =.:.:.:.:.:.:.Y 6 j h h q q i u y r e >.",
">.>.G G G F D D H D H ; ! ;.:.:.:.:.I 1 c j h h h q i 0 u y >.>.",
">.>.G G F F F F D D H J $ U ;.:.:.Y 1 n c j j h q q i 0 y y >.>.",
">.>.>.G F F F F D D H H H @ ! #.~ 3 v c j j h h x q i 0 y >.>.>.",
">.>.>.>.F F F F D D H H H b k k a b v n j j h h h q q i >.>.>.>.",
">.>.>.>.>.F F F D D H H b H b l v v v n n j j j h q q >.>.>.>.>.",
">.>.>.>.>.>.G F F H H H b H b b b v v d c j j h h h >.>.>.>.>.>.",
">.>.>.>.>.>.>.F D D D H H H b b b v v n n j j h h >.>.>.>.>.>.>.",
">.>.>.>.>.>.>.>.>.H D H H b b b b v v v v c x >.>.>.>.>.>.>.>.>.",
">.>.>.>.>.>.>.>.>.>.>.>.H H b b b b v n >.>.>.>.>.>.>.>.>.>.>.>."
};
